# xmcd
#
# Track frame offsets:
#	150
#	16274
#	33555
#	47787
#	62317
#	74594
#	90213
#	107920
#	121645
#	137823
#	151334
#	165504
#
# Disc length: 2430 seconds
#
# Revision: 0
# Processed by: cddbd v1.5.2PL0 Copyright (c) Steve Scherf et al.
# Submitted via: audiograbber 1.83.01
#
DISCID=91097c0c
DTITLE=Various Artist - New Country Vol. 35
DYEAR=2007
DGENRE=Country
TTITLE0=Mollie Castle - A Guy Like That
TTITLE1=George Barnes - Country Singer
TTITLE2=Jernie Talles - High Performance Woman
TTITLE3=Jim Arp - Move On Down The Line
TTITLE4=Floyd Flowers - Overtime
TTITLE5=Chris Gray - Savin' It Up For A Sunny Day
TTITLE6=Sherry Lynn - Scarecrow Dance
TTITLE7=Alan Langworthy - Tell You When I Get There
TTITLE8=John Fee - The More He Drinks The More He Thinks
TTITLE9=Miko Marks - The Son My Daddy Never Had
TTITLE10=Bruce Stephens - This Redneck Of The Woods
TTITLE11=Vivian Ashton - Why Did I Walk Away
EXTD=
EXTT0=
EXTT1=
EXTT2=
EXTT3=
EXTT4=
EXTT5=
EXTT6=
EXTT7=
EXTT8=
EXTT9=
EXTT10=
EXTT11=
PLAYORDER=
